<?xml version="1.0" encoding="UTF-8"?>
<svg version="1.1" xmlns="http://www.w3.org/2000/svg" width="518" height="409">
<path d="M0 0 C170.94 0 341.88 0 518 0 C518 134.97 518 269.94 518 409 C347.06 409 176.12 409 0 409 C0 274.03 0 139.06 0 0 Z " fill="#E9E8E5" transform="translate(0,0)"/>
<path d="M0 0 C23.83687221 -0.06974192 47.67371945 -0.1231339 71.51067352 -0.15543652 C82.58104447 -0.17084043 93.65135046 -0.19180455 104.72167969 -0.22631836 C114.38170244 -0.25642066 124.0416781 -0.27562192 133.70174646 -0.28226548 C138.80656936 -0.28614283 143.91125766 -0.29511633 149.01603699 -0.31719017 C181.31259855 -0.45116441 213.22934454 -0.35597753 243 14 C244.04027344 14.48855469 245.08054688 14.97710937 246.15234375 15.48046875 C254.89246016 19.85572322 261.86011514 25.43864795 269 32 C269.89847656 32.804375 270.79695313 33.60875 271.72265625 34.4375 C288.10404287 49.831446 298.16747508 73.19250522 299.16113281 95.64013672 C299.18107638 96.9865787 299.19476359 98.33312378 299.203125 99.6796875 C299.20882507 100.41011261 299.21452515 101.14053772 299.22039795 101.89309692 C299.22980817 103.43783135 299.23636603 104.9825855 299.24023438 106.52734375 C299.24982827 108.83371636 299.28084101 111.13915275 299.3125 113.4453125 C299.49574195 138.81930331 292.03911049 161.87738019 275 181 C274.32324219 181.76054687 273.64648438 182.52109375 272.94921875 183.3046875 C262.17676548 194.70604106 249.18538126 202.59369878 235 209 C234.13117188 209.39703125 233.26234375 209.7940625 232.3671875 210.203125 C218.63028514 216.07041211 204.36631721 218.98124051 189.59771729 220.69793701 C188.03058285 220.88016366 186.46420204 221.0693262 184.89955139 221.27177429 C176.85126085 222.21988088 168.80065594 222.12645407 160.7109375 222.09765625 C159.15581305 222.09578737 157.600688 222.09436569 156.04556274 222.09336853 C151.98502937 222.08958037 147.92453271 222.0797824 143.86401367 222.06866455 C139.70752458 222.05837016 135.55102946 222.05385383 131.39453125 222.04882812 C123.26300413 222.03815621 115.13150665 222.02112515 107 222 C107.06141378 233.9185953 107.13866489 245.83697529 107.23571491 257.75533676 C107.28029845 263.29048943 107.31958073 268.82557052 107.34643555 274.36083984 C107.37258878 279.71022535 107.41307519 285.05933364 107.46318626 290.40854645 C107.47977404 292.44166852 107.49133837 294.47483844 107.49761391 296.50801849 C107.54978819 311.86838948 107.6446301 326.81011354 118.6640625 338.8125 C129.1129721 348.35488319 142.34989533 350.2661234 156 351 C156 356.61 156 362.22 156 368 C104.52 368 53.04 368 0 368 C0 362.72 0 357.44 0 352 C2.0625 351.773125 4.125 351.54625 6.25 351.3125 C16.85517171 349.76992957 26.9467039 346.47704728 34 338 C40.89295587 326.89370282 42.15160101 315.90765195 42.14044189 303.13421631 C42.14341302 302.06187343 42.14638414 300.98953055 42.1494453 299.88469243 C42.15809458 296.30300311 42.15963734 292.72134736 42.16113281 289.13964844 C42.16576359 286.56683786 42.1707886 283.99402797 42.17617798 281.42121887 C42.18971922 274.4397063 42.19577913 267.4581995 42.20018864 260.47667599 C42.20295759 256.11257494 42.20719606 251.74847609 42.21169281 247.38437653 C42.22387883 235.28687555 42.2341802 223.18937633 42.2375679 211.09186935 C42.23778747 210.31868731 42.23800703 209.54550526 42.23823325 208.74889345 C42.23845153 207.97393245 42.23866981 207.19897144 42.2388947 206.40052676 C42.23933816 204.83033164 42.23978472 203.26013652 42.24023438 201.68994141 C42.24056652 200.52165148 42.24056652 200.52165148 42.24090537 199.32975975 C42.24485255 186.71245553 42.2623071 174.09520909 42.2855939 161.47792718 C42.30934258 148.50507131 42.32177131 135.53224441 42.32293582 122.55936646 C42.32385048 115.28313434 42.32955018 108.00697758 42.34775543 100.7307663 C42.36482348 93.88530918 42.36638285 87.03999698 42.35761642 80.19452477 C42.35684706 77.68719029 42.36117549 75.17984808 42.37107468 72.67253304 C42.38383041 69.23942613 42.37789732 65.8068223 42.36749268 62.37371826 C42.37554908 61.39080992 42.38360548 60.40790157 42.39190602 59.39520812 C42.31723772 48.79985354 40.20176784 35.18714103 32.34375 27.34765625 C31 26 31 26 31 24 C30.43796875 23.7215625 29.8759375 23.443125 29.296875 23.15625 C27.77367412 22.38946861 26.2627123 21.59784307 24.765625 20.78125 C16.53061295 16.58702026 9.11755957 15.85720646 0 15 C0 10.05 0 5.1 0 0 Z " fill="#0D0D0B" transform="translate(10,24)"/>
<path d="M0 0 C79.2 0 158.4 0 240 0 C240 31.35 240 62.7 240 95 C233.73 95 227.46 95 221 95 C220.505 91.90625 220.01 88.8125 219.5 85.625 C216.76960494 70.4535005 211.05773091 56.81937013 201 45 C200.45988281 44.34902344 199.91976562 43.69804688 199.36328125 43.02734375 C189.71404235 32.39682632 175.53805969 27.55358859 161.48999023 26.61657715 C156.6400271 26.40262759 151.79134994 26.39241635 146.9375 26.390625 C145.36521785 26.3765795 143.79295031 26.36078988 142.22070312 26.34326172 C136.48062074 26.29119113 130.74027451 26.27248748 125 26.25 C112.13 26.1675 99.26 26.085 86 26 C86 73.19 86 120.38 86 169 C126.34946993 172.27666513 126.34946993 172.27666513 162.71484375 156.2578125 C170.43779006 146.78590379 172.69357609 135.87658096 174 124 C179.94 124 185.88 124 192 124 C192 161.95 192 199.9 192 239 C186.06 239 180.12 239 174 239 C173.443125 234.6378125 173.443125 234.6378125 172.875 230.1875 C171.20303338 218.85496039 167.40319312 209.13153062 158 202 C142.6660776 192.3031688 123.27550882 193.80522129 105.8125 193.4375 C103.88736208 193.39422208 101.96223174 193.35060513 100.03710938 193.30664062 C95.35815131 193.20051632 90.67911429 193.09898677 86 193 C86.06073556 208.29126719 86.13837576 223.58238537 86.23571491 238.87346172 C86.28053216 245.97462662 86.31997852 253.07574295 86.34643555 260.17700195 C86.3695304 266.37207035 86.40305454 272.56698318 86.44870156 278.7619279 C86.47248049 282.0370503 86.48975214 285.31198976 86.49761391 288.58719444 C86.50731376 292.25847268 86.53544405 295.92920084 86.56762695 299.6003418 C86.56619186 300.66634109 86.56475677 301.73234039 86.5632782 302.8306427 C86.71677867 315.30782682 89.10697712 328.22302369 97.5 337.875 C98.325 338.57625 99.15 339.2775 100 340 C100.7425 340.64839844 101.485 341.29679687 102.25 341.96484375 C105.24730023 344.18301622 108.00936709 345.39482403 111.5 346.6875 C112.6034375 347.10386719 113.706875 347.52023437 114.84375 347.94921875 C120.01902951 349.6721769 124.87313606 350.20665376 130.3125 350.5625 C132.519375 350.706875 134.72625 350.85125 137 351 C137 356.61 137 362.22 137 368 C84.2 368 31.4 368 -23 368 C-23 362.39 -23 356.78 -23 351 C-20.2775 350.79375 -17.555 350.5875 -14.75 350.375 C-4.18684543 349.3304182 5.21603956 346.12006127 12.5390625 338.046875 C21.33113825 325.72856566 22.16776401 311.04115496 22.09423828 296.45678711 C22.09145413 294.13769035 22.08878395 291.81859346 22.08621216 289.49949646 C22.08163687 287.67330686 22.08163687 287.67330686 22.07696915 285.81022453 C22.06674271 279.9986824 22.08290687 274.18723314 22.09679389 268.37570679 C22.11790871 259.47358268 22.13162884 250.57178905 22.09960938 241.66967773 C22.07573279 235.00002974 22.088484 228.33132692 22.12261581 221.66168404 C22.12938205 219.1256185 22.1237136 216.58948756 22.10525894 214.05348015 C22.0810927 210.50601117 22.1003034 206.96119516 22.12939453 203.41381836 C22.11200729 202.3720343 22.09462006 201.33025024 22.07670593 200.25689697 C22.18889085 193.67094431 23.51683557 190.32225565 28.26093864 185.69739628 C30.92227309 183.09982307 32.69769164 180.06816501 34.5625 176.875 C34.94108154 176.23248291 35.31966309 175.58996582 35.7097168 174.92797852 C41.88656213 164.21261442 45.95736857 152.9794426 49 141 C49.21527344 140.16597656 49.43054688 139.33195313 49.65234375 138.47265625 C57.71370711 104.99151936 50.56491346 68.30997295 33.25537109 39.0078125 C30.28855501 34.26275309 26.82599158 30.08468852 23 26 C21.97519531 24.83984375 21.97519531 24.83984375 20.9296875 23.65625 C17.66492796 20.13850171 14.44449405 17.18352285 10.3203125 14.72265625 C9.67989014 14.33996582 9.03946777 13.95727539 8.37963867 13.56298828 C7.11007882 12.82726598 5.82371591 12.11962379 4.52075195 11.44482422 C2.74609375 10.43359375 2.74609375 10.43359375 0 8 C0 5.36 0 2.72 0 0 Z " fill="#0D0D0C" transform="translate(270,24)"/>
<path d="M0 0 C87.37931034 0 87.37931034 0 112.5625 23.37890625 C126.18962875 37.71961775 133.05567498 57.15079403 133.23828125 76.7734375 C133.246353 77.61484283 133.25442474 78.45624817 133.26274109 79.32315063 C133.27652955 81.10327124 133.28727497 82.8834177 133.29516602 84.66357422 C133.30660807 86.45336868 133.3269343 88.24313116 133.35668945 90.03271484 C133.7577884 114.21965344 127.82115092 135.68241262 110.875 153.75 C81.63888687 181.69924158 36.79507927 176 0 176 C0 117.92 0 59.84 0 0 Z " fill="#E9E8E5" transform="translate(117,46)"/>
<path d="M0 0 C24.18229591 -0.04668742 48.36458508 -0.08197285 72.54691696 -0.10362434 C83.77478287 -0.11394399 95.0026208 -0.12801747 106.23046875 -0.15087891 C116.01481814 -0.17079171 125.79914727 -0.18371143 135.58351636 -0.18817699 C140.76591578 -0.19078794 145.94825725 -0.19693912 151.13063812 -0.21146011 C156.00608066 -0.2250107 160.88144121 -0.22922775 165.75690079 -0.22621536 C167.54838888 -0.22676666 169.33987964 -0.2307591 171.13135147 -0.23841095 C173.57356997 -0.24833272 176.01547723 -0.24597905 178.45770264 -0.24050903 C179.16976765 -0.24633472 179.88183267 -0.2521604 180.61547542 -0.25816262 C184.24635042 -0.23611805 186.91132249 0.00978914 190 2 C189.08577806 1.99907821 188.17155611 1.99815641 187.22963047 1.99720669 C164.96982387 1.97510851 142.71001916 1.95856748 120.4502039 1.94818783 C109.68546721 1.94303471 98.92073784 1.93601074 88.15600586 1.92456055 C78.77190233 1.91458366 69.38780411 1.90813941 60.00369543 1.90591151 C55.03633717 1.90460951 50.06899409 1.90155597 45.1016407 1.89426994 C40.422364 1.88746233 35.74310869 1.88539268 31.06382751 1.88689232 C29.35023317 1.88661812 27.63663807 1.88464121 25.92304802 1.88079453 C17.89082996 1.86365426 9.96946786 1.84775641 2 3 C1.67 6.3 1.34 9.6 1 13 C0.67 13 0.34 13 0 13 C0 8.71 0 4.42 0 0 Z " fill="#040403" transform="translate(10,24)"/>
<path d="M0 0 C4.62 0 9.24 0 14 0 C14 5.61 14 11.22 14 17 C-37.48 17 -88.96 17 -142 17 C-141.67 13.04 -141.34 9.08 -141 5 C-140.67 5 -140.34 5 -140 5 C-140 8.3 -140 11.6 -140 15 C-89.51 15 -39.02 15 13 15 C13 10.71 13 6.42 13 2 C6.565 1.505 6.565 1.505 0 1 C0 0.67 0 0.34 0 0 Z " fill="#222120" transform="translate(152,375)"/>
<path d="M0 0 C5.67423184 -0.02486852 11.34843138 -0.04293935 17.02270508 -0.05493164 C18.94979404 -0.05993539 20.87687925 -0.06674045 22.80395508 -0.07543945 C25.58676076 -0.08767948 28.36951589 -0.09326804 31.15234375 -0.09765625 C32.00271713 -0.10281754 32.85309052 -0.10797882 33.72923279 -0.11329651 C39.22895519 -0.11380299 44.5431175 0.30618608 50 1 C50 1.33 50 1.66 50 2 C34.16 2 18.32 2 2 2 C2.33 43.25 2.66 84.5 3 127 C0.14175074 122.71262612 -0.12560484 118.9477831 -0.12025452 113.88102722 C-0.12162918 112.87286957 -0.12300385 111.86471191 -0.12442017 110.82600403 C-0.12082489 109.73124252 -0.11722961 108.63648102 -0.11352539 107.50854492 C-0.11367142 106.34713989 -0.11381744 105.18573486 -0.1139679 103.98913574 C-0.11327161 100.15289437 -0.10549243 96.31670164 -0.09765625 92.48046875 C-0.09579106 89.81960467 -0.09431844 87.15874328 -0.09336853 84.49787903 C-0.09026339 78.21170298 -0.08206102 71.92554437 -0.07201904 65.63937598 C-0.06083253 58.48099479 -0.05534106 51.32261275 -0.05032361 44.16422498 C-0.03987772 29.44280775 -0.0222941 14.72140418 0 0 Z " fill="#C4C4C2" transform="translate(356,217)"/>
<path d="M0 0 C14.85 0 29.7 0 45 0 C45 0.33 45 0.66 45 1 C30.81 1.33 16.62 1.66 2 2 C2.00580078 5.24593994 2.01160156 8.49187988 2.01757812 11.83618164 C2.06491724 46.38574712 1.85710154 80.92873785 1.53643799 115.47686768 C1.48047631 121.55963057 1.42686897 127.64241382 1.37324238 133.72519767 C1.25188735 147.48349343 1.12719947 161.24175711 1 175 C0.67 175 0.34 175 0 175 C0 117.25 0 59.5 0 0 Z " fill="#DEDDDB" transform="translate(117,46)"/>
<path d="M0 0 C0.66 0 1.32 0 2 0 C2 31.35 2 62.7 2 95 C-4.27 95 -10.54 95 -17 95 C-17 92.36 -17 89.72 -17 87 C-16.67 87 -16.34 87 -16 87 C-16 88.98 -16 90.96 -16 93 C-10.72 93 -5.44 93 0 93 C0 62.31 0 31.62 0 0 Z " fill="#353533" transform="translate(508,24)"/>
<path d="M0 0 C14.85 0 29.7 0 45 0 C45 0.33 45 0.66 45 1 C30.81 1.33 16.62 1.66 2 2 C2 20.15 2 38.3 2 57 C1.67 57 1.34 57 1 57 C0.67 38.19 0.34 19.38 0 0 Z " fill="#C9C9C7" transform="translate(117,46)"/>
<path d="M0 0 C0.99 0.33 1.98 0.66 3 1 C2.34 1 1.68 1 1 1 C1 3.97 1 6.94 1 10 C3.31 10 5.62 10 8 10 C8 10.66 8 11.32 8 12 C10.64 12.33 13.28 12.66 16 13 C16 13.66 16 14.32 16 15 C10.06 14.34 4.12 13.68 -2 13 C-1.125 1.125 -1.125 1.125 0 0 Z " fill="#1B1B19" transform="translate(12,26)"/>
<path d="M0 0 C0.33 0 0.66 0 1 0 C1 8.25 1 16.5 1 25 C0.01 25.33 -0.98 25.66 -2 26 C-2.05799124 22.22923111 -2.09359306 18.45857666 -2.125 14.6875 C-2.14175781 13.61564453 -2.15851563 12.54378906 -2.17578125 11.43945312 C-2.18222656 10.41142578 -2.18867188 9.38339844 -2.1953125 8.32421875 C-2.20578613 7.37635498 -2.21625977 6.42849121 -2.22705078 5.4519043 C-2 3 -2 3 0 0 Z " fill="#333230" transform="translate(252,123)"/>
<path d="M0 0 C0 0.66 0 1.32 0 2 C-1.43333021 2.39063507 -2.87192679 2.76198474 -4.3125 3.125 C-5.51326172 3.43824219 -5.51326172 3.43824219 -6.73828125 3.7578125 C-9 4 -9 4 -12 2 C-7.8803623 0.70756464 -4.33168317 -0.26252625 0 0 Z " fill="#E3E2E0" transform="translate(233,238)"/>
<path d="M0 0 C1.0828125 0.37125 1.0828125 0.37125 2.1875 0.75 C1.8575 1.41 1.5275 2.07 1.1875 2.75 C-0.87890625 3.1640625 -0.87890625 3.1640625 -3.375 3.375 C-4.20128906 3.44976562 -5.02757812 3.52453125 -5.87890625 3.6015625 C-6.83603516 3.67503906 -6.83603516 3.67503906 -7.8125 3.75 C-3.50480769 -0.31153846 -3.50480769 -0.31153846 0 0 Z " fill="#292927" transform="translate(210.8125,240.25)"/>
<path d="M0 0 C2 3 2 3 1.75 5 C1 7 1 7 -1 10 C-1.02689216 8.52093108 -1.04634621 7.04172517 -1.0625 5.5625 C-1.07410156 4.73878906 -1.08570313 3.91507813 -1.09765625 3.06640625 C-1 1 -1 1 0 0 Z " fill="#E2E1DE" transform="translate(321,139)"/>
<path d="M0 0 C3.86107457 2.57404971 3.94319692 4.61020259 5 9 C4.34 9 3.68 9 3 9 C0 3.375 0 3.375 0 0 Z " fill="#171716" transform="translate(307,67)"/>
<path d="M0 0 C0.66 0.33 1.32 0.66 2 1 C-1.625 5.875 -1.625 5.875 -5 7 C-3.70700306 4.11562221 -2.34058637 2.12780579 0 0 Z " fill="#1C1C1B" transform="translate(283,361)"/>
</svg>
