<svg xmlns="http://www.w3.org/2000/svg" viewBox="0 0 96 96" role="img" aria-labelledby="title desc">
  <title id="title">Pearl Frictions logo</title>
  <desc id="desc">Interlocking rings forming the letters P and F in blue and teal.</desc>
  <defs>
    <linearGradient id="ring" x1="0%" y1="0%" x2="100%" y2="100%">
      <stop offset="0%" stop-color="#0ea5e9" />
      <stop offset="100%" stop-color="#14b8a6" />
    </linearGradient>
  </defs>
  <rect width="96" height="96" rx="18" fill="#0f172a" />
  <path
    d="M36 22c-7.732 0-14 6.268-14 14v24c0 7.732 6.268 14 14 14h12c7.732 0 14-6.268 14-14v-9.5c0-2.485-2.015-4.5-4.5-4.5S53 48.015 53 50.5V60c0 2.761-2.239 5-5 5H37c-2.761 0-5-2.239-5-5V36c0-2.761 2.239-5 5-5h11c2.761 0 5 2.239 5 5v1.5c0 2.485 2.015 4.5 4.5 4.5S62 39.985 62 37.5V36c0-7.732-6.268-14-14-14z"
    fill="url(#ring)" />
  <circle cx="66" cy="30" r="10" fill="#e2e8f0" />
  <circle cx="66" cy="30" r="6" fill="#0f172a" />
</svg>
